<?xml version="1.0" standalone="no"?>
<!DOCTYPE svg PUBLIC "-//W3C//DTD SVG 1.1//EN" "http://www.w3.org/Graphics/SVG/1.1/DTD/svg11.dtd" >
<svg xmlns="http://www.w3.org/2000/svg">
<metadata>Generated by IcoMoon</metadata>
<defs>
<font id="icomoon" horiz-adv-x="1024">
<font-face units-per-em="1024" ascent="960" descent="-64" />
<missing-glyph horiz-adv-x="1024" />
<glyph unicode="&#x20;" d="" horiz-adv-x="512" />
<glyph unicode="&#xe000;" d="M40.421 517.618h78.619v-196.514h-78.619v196.514zM138.645 537.278h658.283v-98.279h29.481l157.17 157.225v-510.91l-157.17 157.225h-29.481v-157.225h-658.283v451.963zM295.881 832.014c75.938 0 137.499-61.616 137.499-137.552 0-75.952-61.561-137.568-137.499-137.568-76.005 0-137.566 61.616-137.566 137.568 0 75.936 61.561 137.552 137.566 137.552zM610.224 832.014c76.005 0 137.566-61.616 137.566-137.552 0-75.952-61.561-137.568-137.566-137.568-75.938 0-137.499 61.616-137.499 137.568 0 75.936 61.561 137.552 137.499 137.552z" />
<glyph unicode="&#xe001;" d="M71.856 267.25l66.681 66.681 111.157-111.157 111.159 111.157 66.681-66.681-111.118-111.157 111.118-111.159-66.681-66.681-111.159 111.157-111.157-111.157-66.681 66.681 111.157 111.159-111.157 111.157zM512 679.746c91.689 0 131.006-52.357 117.746-162.357 11.817-6.791 19.806-19.511 19.806-34.117 0-17.851-11.922-32.928-28.254-37.712-6.805-24.293-17.381-45.797-30.706-63.017v-82.688c43.655-8.704 78.606-13.081 131.017-39.275 52.359-26.178 69.835-50.203 104.773-85.141v-124.455h-357.632l-105.109 105.109 111.159 111.157-41.392 41.392v73.902c-13.326 17.221-23.902 38.725-30.706 63.017-16.331 4.784-28.254 19.861-28.254 37.712 0 14.606 7.989 27.326 19.806 34.117-13.259 110 26.057 162.357 117.746 162.357zM8.987 239.616v124.457c34.937 34.937 52.411 58.96 104.77 85.141 52.414 26.192 87.365 30.558 131.019 39.275v82.688c-13.326 17.218-23.904 38.722-30.706 63.015-16.331 4.784-28.256 19.861-28.256 37.714 0 14.606 7.991 27.323 19.767 34.101-13.218 110 26.098 162.373 117.787 162.373 86.002 0 125.897-69.673 119.618-166.13-56.738-22.503-88.185-53.936-88.050-145.543-11.817-6.791-19.767-19.552-19.767-34.144 0-17.865 4.043-40.784 20.373-45.568 6.805-24.279 17.383-45.797 30.706-63.001v-58.194l-25.289 25.291-103.842-103.815-9.728-4.891-108.745 108.706-113.84-113.84 27.609-27.634h-43.426zM753.045 284.146c-52.414 26.219-71.639 30.558-115.294 39.317v90.53c13.323 17.205 23.902 38.722 30.706 63.001 16.329 4.784 20.373 27.703 20.373 45.568 0 14.592-7.95 27.353-19.767 34.144 0.135 91.607-31.312 123.040-88.050 145.543-6.293 96.457 33.616 166.13 119.618 166.13 91.689 0 131.006-52.373 117.787-162.373 11.776-6.777 19.767-19.495 19.767-34.101 0-17.854-11.925-32.93-28.256-37.714-6.802-24.293-17.381-45.797-30.706-63.015v-82.688c43.655-8.704 78.606-13.083 131.019-39.275 52.359-26.181 69.833-50.203 104.77-85.141v-124.457h-197.415c-25.278 26.167-21.127 22.839-64.553 44.53z" />
<glyph unicode="&#xe002;" d="M123.959 679.746h776.082c23.808 0 43.118-19.307 43.118-43.115v-452.715c0-23.822-19.296-43.115-43.118-43.115h-323.367v-107.79h86.231c23.822 0 43.115-19.294 43.115-43.115v-43.115h-388.041v43.115c0 23.822 19.294 43.115 43.115 43.115h86.231v107.79h-323.367c-23.822 0-43.118 19.294-43.118 43.115v452.715c0 23.808 19.296 43.115 43.118 43.115zM145.515 615.074v-409.6h732.969v409.6h-732.969zM468.885 550.4l150.905-140.126-150.905-140.128v280.254z" />
<glyph unicode="&#xe003;" d="M123.959 679.746h776.082c23.808 0 43.118-19.307 43.118-43.115v-474.272c0-23.822-19.31-43.118-43.118-43.118h-323.367v-86.231h86.231c23.822 0 43.115-19.294 43.115-43.115v-43.115h-388.041v43.115c0 23.822 19.294 43.115 43.115 43.115h86.231v86.231h-323.367c-23.822 0-43.118 19.296-43.118 43.118v474.272c0 23.808 19.296 43.115 43.118 43.115zM145.515 615.074v-431.159h732.969v431.159h-732.969zM588.208 267.682l-76.208 76.219-76.208-76.219-55.605 55.605 76.219 76.208-76.219 76.208 55.605 55.605 76.208-76.219 76.208 76.219 55.605-55.605-76.219-76.208 76.219-76.208-55.605-55.605z" />
<glyph unicode="&#xe004;" d="M94.315 777.755h175.858v-175.858h-175.858v175.858zM94.315 535.929h175.858v-175.858h-175.858v175.858zM358.103 777.755h571.582v-175.858h-571.582v175.858zM94.315 294.103h175.858v-175.858h-175.858v175.858zM358.103 535.929h571.582v-175.858h-571.582v175.858zM358.103 294.103h571.582v-175.858h-571.582v175.858z" />
<glyph unicode="&#xe005;" d="M204.247-55.472v395.682l-43.963-43.963-65.968 109.931 417.685 329.714 153.897-121.479v83.024l87.929 16.491v-168.933l175.858-138.818-65.968-109.931-43.963 43.963v-395.682h-615.506zM512 583.842l-241.826-199.666v-373.721h131.895v241.826h219.863v-241.826h131.895v373.721l-241.826 199.666z" />
<glyph unicode="&#xe006;" d="M797.79 278.528c72.866 0 131.895-52.507 131.895-117.262 0-10.119-1.456-19.941-4.165-29.319l-127.73-205.177-127.771 205.177c-2.72 9.378-4.121 19.2-4.121 29.319 0 64.754 59.029 117.262 131.893 117.262zM797.79 197.915c-20.251 0-36.647-16.398-36.647-36.649 0-20.238 16.395-36.635 36.647-36.635 20.238 0 36.635 16.398 36.635 36.635 0 20.251-16.398 36.649-36.635 36.649zM204.247-51.227v395.682l-43.963-43.966-65.968 109.934 417.685 329.753 153.897-121.518v83.024l87.929 16.491v-168.891l175.858-138.859-61.63-102.752-17.218 5.739-31.083 31.045v-25.047l-21.963 1.225c-15.211 0-29.938-1.685-43.963-4.905v72.69l-241.826 199.707-241.826-199.707v-373.719h131.895v241.826h219.863v-241.826h74.347l41.056-65.927h-533.088z" />
<glyph unicode="&#xe007;" d="M512 560.277c91.689 0 131.006-52.4 117.746-162.359 11.817-6.791 19.806-19.509 19.806-34.155 0-17.851-11.922-32.889-28.254-37.673-6.805-24.331-17.381-45.835-30.706-63.056v-82.647c43.655-8.704 78.606-13.083 131.017-39.275 52.359-26.222 69.835-50.245 104.773-85.141v-124.457h-628.763v124.457c34.937 34.896 52.4 58.919 104.773 85.141 52.411 26.192 87.362 30.571 131.017 39.275v82.647c-13.326 17.221-23.902 38.725-30.706 63.056-16.331 4.784-28.254 19.822-28.254 37.673 0 14.647 7.989 27.365 19.806 34.155-13.259 109.959 26.057 162.359 117.746 162.359zM270.955 164.674c-43.413-21.733-39.275-18.363-64.553-44.53h-197.415v124.457c34.937 34.896 52.411 58.921 104.77 85.141 52.414 26.192 87.365 30.571 131.019 39.275v82.647c-13.326 17.221-23.904 38.725-30.706 63.058-16.331 4.782-28.256 19.819-28.256 37.671 0 14.647 7.991 27.367 19.767 34.144-13.218 109.959 26.098 162.37 117.787 162.37 86.002 0 125.897-69.673 119.618-166.13-56.738-22.501-88.185-53.936-88.050-145.584-11.817-6.791-19.767-19.509-19.767-34.101 0-17.867 4.043-40.786 20.373-45.568 6.805-24.32 17.383-45.838 30.706-63.003v-90.53c-43.655-8.757-62.88-13.136-115.294-39.317zM753.045 164.674c-52.414 26.181-71.639 30.56-115.294 39.317v90.53c13.323 17.166 23.902 38.683 30.706 63.003 16.329 4.782 20.373 27.701 20.373 45.568 0 14.592-7.95 27.31-19.767 34.101 0.135 91.648-31.312 123.083-88.050 145.584-6.293 96.457 33.616 166.13 119.618 166.13 91.689 0 131.006-52.398 117.787-162.37 11.776-6.777 19.767-19.497 19.767-34.144 0-17.851-11.925-32.889-28.256-37.671-6.802-24.334-17.381-45.838-30.706-63.058v-82.647c43.655-8.704 78.606-13.083 131.019-39.275 52.359-26.219 69.833-50.245 104.77-85.141v-124.457h-197.415c-25.278 26.167-21.127 22.798-64.553 44.53z" />
<glyph unicode="&#xe008;" d="M291.934 367.723h94.315v-157.198h157.184v-94.315h-157.184v-157.198h-94.315v157.198h-157.198v94.315h157.198v157.198zM512 619.223c91.689 0 131.006-52.398 117.746-162.357 11.817-6.791 19.806-19.511 19.806-34.155 0-17.813-11.922-32.889-28.254-37.673-6.805-24.334-17.381-45.838-30.706-63.056v-82.649c43.655-8.704 78.606-13.083 131.017-39.275 52.359-26.219 69.835-50.242 104.773-85.141v-124.455h-408.697v94.315h157.198v157.184h-141.474v80.021l-15.723 24.75v52.427h-35.355c-4.971 6.56-7.881 14.727-7.881 23.552 0 14.645 7.989 27.365 19.806 34.155-13.259 109.959 26.057 162.357 117.746 162.357zM197.618-9.538v94.315h62.869v-94.315h-62.869zM8.987 179.093v124.457c34.937 34.896 52.411 58.919 104.77 85.138 52.414 26.194 87.365 30.56 131.019 39.278v82.647c-13.326 17.218-23.904 38.722-30.706 63.056-16.331 4.784-28.256 19.861-28.256 37.673 0 14.645 7.991 27.365 19.767 34.142-13.218 109.959 26.098 162.373 117.787 162.373 86.002 0 125.897-69.673 119.618-166.13-56.738-22.503-88.185-53.936-88.050-145.584-11.817-6.791-19.767-19.511-19.767-34.103 0-17.865 4.043-40.784 20.373-45.568l5.659-17.312h-100.715v-157.198h-157.184v-62.869h-94.315zM753.045 223.623c-52.414 26.219-71.639 30.558-115.294 39.317v90.53c13.323 17.163 23.902 38.681 30.706 63.001 16.329 4.784 20.373 27.703 20.373 45.568 0 14.592-7.95 27.312-19.767 34.103 0.135 91.648-31.312 123.081-88.050 145.584-6.293 96.457 33.616 166.13 119.618 166.13 91.689 0 131.006-52.414 117.787-162.373 11.776-6.777 19.767-19.497 19.767-34.142 0-17.813-11.925-32.889-28.256-37.673-6.802-24.334-17.381-45.838-30.706-63.056v-82.647c43.655-8.704 78.606-13.083 131.019-39.278 52.359-26.219 69.833-50.242 104.77-85.138v-124.457h-197.415c-25.278 26.165-21.127 22.837-64.553 44.53z" />
<glyph unicode="&#xe009;" d="M512 824.819c109.923 0 157.027-62.821 141.134-194.62 14.189-8.119 23.729-23.385 23.729-40.892 0-21.391-14.308-39.48-33.838-45.217-8.183-29.113-20.887-54.91-36.821-75.537v-99.039c52.355-10.464 94.205-15.718 157.027-47.102 62.767-31.438 83.739-60.195 125.587-102.086v-149.144h-753.638v149.144c41.849 41.891 62.821 70.647 125.588 102.086 62.821 31.383 104.67 36.638 157.027 47.102v99.039c-15.934 20.627-28.639 46.423-36.821 75.537-19.529 5.737-33.827 23.826-33.827 45.217 0 17.506 9.528 32.772 23.717 40.892-15.892 131.8 31.211 194.62 141.134 194.62z" />
<glyph unicode="&#xe00a;" d="M156.295 609.685h711.41c37.712 0 75.454-37.739 75.454-75.454v-495.831c0-37.712-37.742-75.454-75.454-75.454h-711.41c-37.712 0-75.454 37.742-75.454 75.454v495.831c0 37.714 37.742 75.454 75.454 75.454zM167.074 92.295c0-28.267 14.848-43.115 43.115-43.115h603.621c28.267 0 43.115 14.848 43.115 43.115v388.041l-287.675-294.4c-26.638-26.677-69.861-26.677-96.512 0l-305.664 294.4v-388.041zM231.746 523.454l253.063-253.063c19.968-19.982 52.4-19.982 72.368 0l256.633 253.063h-582.064z" />
<glyph unicode="&#xe00b;" d="M225.509 876.907h81.84c22.622 0 40.96-18.338 40.96-40.946v-81.851c0-22.61-18.338-40.949-40.96-40.949h-81.84c-22.622 0-40.96 18.338-40.96 40.949v81.851c0 22.608 18.338 40.946 40.96 40.946zM471.054 876.907h81.893c22.622 0 40.907-18.338 40.907-40.946v-81.851c0-22.61-18.286-40.949-40.907-40.949h-81.893c-22.622 0-40.907 18.338-40.907 40.949v81.851c0 22.608 18.286 40.946 40.907 40.946zM225.509 631.31h81.84c22.622 0 40.96-18.338 40.96-40.946v-81.854c0-22.608-18.338-40.891-40.96-40.891h-81.84c-22.622 0-40.96 18.283-40.96 40.891v81.854c0 22.608 18.338 40.946 40.96 40.946zM225.509 385.712h81.84c22.622 0 40.96-18.338 40.96-40.894v-81.906c0-22.555-18.338-40.894-40.96-40.894h-81.84c-22.622 0-40.96 18.338-40.96 40.894v81.906c0 22.555 18.338 40.894 40.96 40.894zM471.054 631.31h81.893c22.622 0 40.907-18.338 40.907-40.946v-81.854c0-22.608-18.286-40.891-40.907-40.891h-81.893c-22.622 0-40.907 18.283-40.907 40.891v81.854c0 22.608 18.286 40.946 40.907 40.946zM471.054 385.712h81.893c22.622 0 40.907-18.338 40.907-40.894v-81.906c0-22.555-18.286-40.894-40.907-40.894h-81.893c-22.622 0-40.907 18.338-40.907 40.894v81.906c0 22.555 18.286 40.894 40.907 40.894zM716.651 876.907h81.84c22.622 0 40.96-18.338 40.96-40.946v-81.851c0-22.61-18.338-40.949-40.96-40.949h-81.84c-22.622 0-40.96 18.338-40.96 40.949v81.851c0 22.608 18.338 40.946 40.96 40.946zM716.651 631.31h81.84c22.622 0 40.96-18.338 40.96-40.946v-81.854c0-22.608-18.338-40.891-40.96-40.891h-81.84c-22.622 0-40.96 18.283-40.96 40.891v81.854c0 22.608 18.338 40.946 40.96 40.946zM716.651 385.712h81.84c22.622 0 40.96-18.338 40.96-40.894v-81.906c0-22.555-18.338-40.894-40.96-40.894h-81.84c-22.622 0-40.96 18.338-40.96 40.894v81.906c0 22.555 18.338 40.894 40.96 40.894zM471.054 140.112h81.893c22.622 0 40.907-18.283 40.907-40.891v-81.906c0-22.555-18.286-40.894-40.907-40.894h-81.893c-22.622 0-40.907 18.338-40.907 40.894v81.906c0 22.608 18.286 40.891 40.907 40.891z" />
<glyph unicode="&#xe00c;" d="M80.841-19.55v732.981h107.79v64.674c0 23.808 19.307 43.115 43.115 43.115h86.233c23.822 0 43.115-19.307 43.115-43.115v-64.674h301.81v64.674c0 23.822 19.307 43.115 43.115 43.115h86.233c23.819 0 43.115-19.294 43.115-43.115v-64.674h107.79v-732.981h-862.318zM145.515 45.122h732.969v495.847h-732.969v-495.847zM188.631 196.041h129.349v-107.787h-129.349v107.787zM361.095 196.041h129.346v-107.787h-129.346v107.787zM533.559 196.041h129.346v-107.787h-129.346v107.787zM706.021 196.041h129.349v-107.787h-129.349v107.787zM188.631 346.946h129.349v-107.787h-129.349v107.787zM361.095 346.946h129.346v-107.787h-129.346v107.787zM533.559 346.946h129.346v-107.787h-129.346v107.787zM706.021 346.946h129.349v-107.787h-129.349v107.787zM361.095 497.854h129.346v-107.79h-129.346v107.79zM533.559 497.854h129.346v-107.79h-129.346v107.79zM706.021 497.854h129.349v-107.79h-129.349v107.79zM738.359 778.105c-17.867 0-32.338-14.471-32.338-32.336v-64.674c0-17.879 14.471-32.336 32.338-32.336h21.557c17.879 0 32.338 14.457 32.338 32.336v64.674c0 17.865-14.459 32.336-32.338 32.336h-21.557zM264.085 778.105c-17.867 0-32.338-14.471-32.338-32.336v-64.674c0-17.879 14.471-32.336 32.338-32.336h21.557c17.881 0 32.338 14.457 32.338 32.336v64.674c0 17.865-14.457 32.336-32.338 32.336h-21.557z" />
<glyph unicode="&#xe00d;" d="M160.283 811.79h43.963v-835.369h-43.963v835.369zM248.213-23.579v835.369h615.504v-835.369h-615.504zM733.481 252.727l-53.856 74.887c-2.72 3.717-6.169 6.331-10.293 7.895-4.165 1.509-8.327 1.872-12.478 0.983l-8.473-3.785-33.726-25.143-9.904-4.514c-4.958-1.049-9.849-0.754-14.631 0.864-4.743 1.643-8.921 4.889-12.464 9.781l-91.15 127.072-4.487 10.427c-1.063 5.054-0.795 10.064 0.93 15.038 1.685 4.93 4.743 9.040 9.216 12.368l33.723 25.143c3.733 2.734 6.293 6.197 7.803 10.441 1.467 4.203 1.71 8.489 0.779 12.88l-3.785 8.61-53.895 74.807c-2.695 3.744-6.117 6.373-10.226 7.936-4.137 1.575-8.313 1.938-12.503 1.024l-8.569-3.826-17.031-12.693c-10.471-7.721-19.093-16.667-25.803-26.827-6.695-10.185-11.694-21.152-14.997-32.903-3.259-11.776-4.93-24.103-4.958-37.013-0.080-12.88 1.294-26.002 4.123-39.301l8.77-30.398 13.568-29.925 9.056-19.362 13.675-23.863 22.069-32.901 25.641-33.726 21.653-25.68 20.667-21.991c10.443-11.694 21.625-21.975 33.536-30.759 11.966-8.773 24.213-15.792 36.825-21.099 12.624-5.31 25.371-8.704 38.251-10.254 12.907-1.55 25.531-1.024 37.808 1.589l22.283 7.168 20.885 12.153 17.248 13.056c3.65 2.816 6.197 6.334 7.719 10.457 1.47 4.176 1.765 8.421 0.85 12.69l-3.854 8.693z" />
<glyph unicode="&#xe00e;" d="M198.736 390.736l243.632-243.63 382.896 487.262 104.421-104.421-487.317-591.685-348.053 348.053 104.421 104.421z" />
<glyph unicode="&#xe00f;" d="M510.007 242.539l353.682 363.493v-255.419l-353.682-373.369-353.685 373.369v255.419l353.685-363.493z" />
<glyph unicode="&#xe010;" d="M158.263 746.416h532.882l255.785-255.785c26.368-26.368 26.368-58.894 0-85.262l-255.785-255.785h-532.882c-37.269 0-63.947 26.679-63.947 63.947v468.937c0 37.269 17.771 58.638 63.947 63.947zM551.141 280.967l47.723 47.71-119.321 119.323 119.307 119.323-47.71 47.71-119.31-119.323-119.321 119.323-47.765-47.71 119.321-119.323-119.321-119.323 47.751-47.71 119.321 119.323 119.323-119.323z" />
<glyph unicode="&#xe011;" d="M865.737 746.416h-532.882l-255.785-255.785c-26.368-26.368-26.368-58.894 0-85.262l255.785-255.785h532.882c37.269 0 63.947 26.679 63.947 63.947v468.937c0 37.269-26.679 63.947-63.947 63.947zM472.859 280.967l-47.723 47.71 119.321 119.323-119.307 119.323 47.71 47.71 119.31-119.323 119.321 119.323 47.765-47.71-119.321-119.323 119.321-119.323-47.765-47.71-119.321 119.323-119.31-119.323z" />
<glyph unicode="&#xe012;" d="M249.493 715.223l262.507-262.507 262.507 262.507 112.505-112.505-262.507-262.507 262.507-262.507-112.505-112.505-262.507 262.507-262.507-262.507-112.505 112.505 262.507 262.507-262.507 262.507 112.505 112.505z" />
<glyph unicode="&#xe013;" d="M510.007 340.791l-78.606-78.606-275.079-284.942v255.447l353.685 373.342 353.682-373.342v-255.447l-275.090 284.942-78.592 78.606z" />
<glyph unicode="&#xe014;" d="M559.145 291.65l-78.606 78.592-284.942 275.093h255.447l373.342-353.685-373.342-353.682h-255.447l284.942 275.079 78.606 78.603z" />
<glyph unicode="&#xe015;" d="M460.855 291.65l78.603-78.603 284.928-275.079h-255.419l-373.369 353.682 373.369 353.685h255.419l-284.928-275.093-78.603-78.592z" />
<glyph unicode="&#xe016;" d="M158.263 746.416h532.882l255.785-255.785c26.368-26.368 26.368-58.894 0-85.262l-255.785-255.785h-532.882c-37.269 0-63.947 26.679-63.947 63.947v468.937c0 37.269 26.679 63.947 63.947 63.947zM222.208 682.469c-28.994 0-63.945-34.951-63.945-63.945v-341.047c0-28.994 34.951-63.945 63.945-63.945h426.306l208.885 199.975c20.505 20.521 20.505 53.749 0 74.254l-208.885 194.709h-426.306zM551.141 280.967l-119.31 119.323-119.335-119.323-47.751 47.71 119.321 119.323-119.321 119.323 47.765 47.71 119.321-119.323 119.31 119.323 47.71-47.71-119.307-119.323 119.321-119.323-47.723-47.71z" />
<glyph unicode="&#xe017;" d="M865.737 746.416h-532.882l-255.785-255.785c-26.368-26.368-26.368-58.894 0-85.262l255.785-255.785h532.882c37.269 0 63.947 26.679 63.947 63.947v468.937c0 37.269-26.679 63.947-63.947 63.947zM801.792 682.469c28.994 0 63.945-34.951 63.945-63.945v-341.047c0-28.994-34.951-63.945-63.945-63.945h-426.306l-208.885 199.975c-20.505 20.521-20.505 53.749 0 74.254l208.885 194.709h426.306zM472.859 280.967l119.31 119.323 119.321-119.323 47.765 47.71-119.321 119.323 119.321 119.323-47.765 47.71-119.321-119.323-119.31 119.323-47.71-47.71 119.307-119.323-119.321-119.323 47.723-47.71z" />
<glyph unicode="&#xe018;" d="M336.439 506.853v156.741c0 76.88 62.343 139.209 139.223 139.209 43.237 0 81.879-19.726 107.44-50.647M614.871 535.472v-115.552c0-76.88-62.343-139.223-139.209-139.223-32.768 0-62.869 11.305-86.663 30.263M171.977 342.743c-6.251 24.711-9.579 50.539-9.579 77.177v104.423h104.421v-87.822M340.034 261.079c36.514-31.15 83.847-50 135.627-50 115.307 0 208.841 93.52 208.841 208.841v104.423h104.423v-104.423c0-149.058-104.139-273.824-243.646-305.474v-42.59h104.421v-104.423h-348.091v104.423h104.421v42.59c-26.558 5.995-51.902 15.454-75.426 27.769-23.497 12.315-45.285 27.499-64.809 45.122M711.141 756.048l-584.448-584.448c-8.583-8.569-8.583-22.473 0-31.056l31.097-31.097c8.583-8.583 22.489-8.583 31.058 0l584.487 584.448c8.583 8.569 8.583 22.473 0 31.097l-31.097 31.056c-8.583 8.624-22.528 8.624-31.097 0z" />
<glyph unicode="&#xe019;" d="M478.222 427.883v405.234h101.307v-405.234h-101.307zM917.234 360.327c0-223.813-181.435-405.234-405.234-405.234s-405.234 181.422-405.234 405.234c0 188.848 129.118 347.486 303.925 392.475v-141.931c-99.003-40.071-168.878-137.163-168.878-250.544 0-149.193 120.953-270.149 270.187-270.149 149.234 0 270.187 120.955 270.187 270.149 0 99.989-54.379 187.323-135.099 234.050v148.117c157.399-55.591 270.146-205.717 270.146-382.167z" />
<glyph unicode="&#xe01a;" d="M787.605 47.858c2.478-5.739 3.691-11.573 3.691-17.502 0-8.219-2.183-15.886-6.549-22.999-4.379-7.074-10.455-12.533-18.338-16.277l-36.889-17.301c-14.391-6.521-28.834-11.305-43.25-14.27-14.459-2.965-29.051-4.418-43.776-4.418-23.728 0-47.186 3.947-70.361 11.842-23.161 7.897-45.326 19.2-66.491 33.899-21.168 14.715-40.974 32.487-59.527 53.344-18.539 20.843-35.168 44.112-49.799 69.726-9.337 14.242-19.173 30.478-29.44 48.706-8.745 15.509-18.715 34.13-29.925 55.797-11.211 21.691-22.517 45.742-33.941 72.192-11.71 26.434-20.965 49.515-27.838 69.28-6.83 19.753-12.126 36.192-15.911 49.273-4.327 15.266-7.358 28.391-9.015 39.278-6.023 20.263-10.441 40.379-13.285 60.389-2.843 20.034-4.258 39.84-4.258 59.486 0 25.655 2.587 50.352 7.746 74.078 5.147 23.714 13.003 45.824 23.648 66.238 10.645 20.425 24.144 38.656 40.501 54.77 16.398 16.073 35.746 29.211 58.059 39.317l36.405 16.775c5.739 2.425 11.52 3.637 17.259 3.637 8.112 0 15.671-2.222 22.663-6.722 6.953-4.487 12.208-10.725 15.698-18.649l70.023-159.015c2.439-5.739 3.65-11.52 3.65-17.259 0-8.503-2.183-16.318-6.562-23.538-4.325-7.168-10.482-12.558-18.443-16.155l-71.991-33.12c-9.486-4.325-16.789-10.763-21.84-19.225-5.067-8.462-7.586-17.57-7.586-27.339 0-7.438 1.401-14.389 4.176-20.951l118.192-269.879c4.622-10.347 10.994-18 19.186-22.864 8.137-4.919 17.017-7.344 26.597-7.344 6.562 0 13.246 1.511 20.050 4.473l71.989 33.079c5.646 2.425 11.399 3.691 17.138 3.691 7.922 0 15.456-2.277 22.501-6.763 7.102-4.501 12.398-10.658 15.995-18.539l69.847-159.138z" />
<glyph unicode="&#xe01b;" d="M69.902 444.025l-15.886 3.49-12.368 9.701-8.219 14.43-3.113 17.342v49.851c0 34.923 7.127 66.937 21.438 96.069 14.309 29.115 33.723 54.567 58.299 76.45 24.576 21.826 53.303 39.733 86.165 53.611 32.823 13.89 67.813 22.891 104.919 27.054l75.049 6.994 74.793 5.106 83.522 2.263 78.201-2.64 63.584-5.161 58.043-7.881c35.826-4.933 69.47-14.418 101.040-28.457 31.609-14.014 59.081-31.851 82.457-53.531 23.378-21.678 41.89-46.969 55.486-75.856 13.595-28.901 20.373-60.606 20.373-95.166v-50.418l-3.287-16.613-9.109-13.851-13.394-9.296-16.277-3.49h-157.925l-16.032 3.49-12.99 9.511-8.61 13.851-3.111 16.923v107.506l-3.49 19.39-9.714 15.897-14.619 10.914c-5.646 2.695-11.762 4.082-18.377 4.082h-382.519c-6.601 0-13.083-1.387-19.39-4.082l-16.491-10.914-11.33-16.274c-2.937-6.334-4.393-12.921-4.393-19.781v-105.552l-3.273-17.342-9.257-14.43-13.595-9.701-16.315-3.49h-160.283zM447.785 411.877h128.43v-232.798l96.338 96.336v-128.457l-160.553-168.597-160.553 168.597v128.457l96.338-96.336v232.798z" />
<glyph unicode="&#xe01c;" d="M512 765.602c106.455 0 202.416-44.786 270.187-116.535v184.050l101.31-101.307v-270.176h-270.187l-101.31 101.351h188.779c-46.35 51.806-113.785 84.411-188.779 84.411-128.418 0-234.537-95.595-251.029-219.513h-118.946c17.086 189.333 176.183 337.719 369.975 337.719zM512 140.814c128.432 0 234.537 95.595 251.029 219.513h118.946c-17.086-189.333-176.183-337.719-369.975-337.719-106.455 0-202.416 44.775-270.187 116.535v-184.050l-101.31 101.307v270.176h270.187l101.31-101.351h-188.779c46.35-51.806 113.785-84.411 188.779-84.411z" />
<glyph unicode="&#xe01d;" d="M115.646 736.567h792.709v-792.711h-216.197v252.254h-360.315v-252.254h-216.197v792.711zM403.902-56.144v108.098h144.139v-108.098h-144.139zM259.799 664.51v-216.199h504.402v216.199h-504.402z" />
<glyph unicode="&#xe01e;" d="M512 709.929c18.837 0 37.282-1.632 55.202-4.798l45.582 112.882 121.154-48.976-45.595-112.869c33.792-22.784 62.937-51.929 85.721-85.721l112.869 45.595 48.976-121.154-112.882-45.582c3.166-17.92 4.798-36.366 4.798-55.202 0-18.837-1.632-37.282-4.798-55.202l112.882-45.582-48.976-121.154-112.869 45.595c-20.736-30.734-46.727-57.641-76.693-79.374l49.502-111.198-119.351-53.209-49.502 111.2c-21.301-4.542-43.371-6.901-66.021-6.901-18.837 0-37.282 1.632-55.202 4.798l-45.582-112.882-121.154 48.976 45.595 112.869c-33.792 22.784-62.937 51.929-85.721 85.721l-112.869-45.595-48.976 121.154 112.882 45.582c-3.166 17.92-4.798 36.366-4.798 55.202 0 18.837 1.632 37.282 4.798 55.202l-112.882 45.582 48.976 121.154 112.869-45.595c20.75 30.734 46.713 57.641 76.693 79.387l-49.502 111.186 119.351 53.207 49.502-111.198c21.301 4.539 43.371 6.898 66.021 6.898zM512 611.906c-120.293 0-217.801-97.509-217.801-217.801 0-120.293 97.509-217.801 217.801-217.801 120.293 0 217.801 97.509 217.801 217.801 0 120.293-97.509 217.801-217.801 217.801z" />
<glyph unicode="&#xe01f;" d="M141.513 395.426h137.081l205.609 171.33v-582.549l-205.609 205.609h-137.081c-37.819 0-68.526 30.654-68.526 68.487v68.581c0 37.835 30.706 68.542 68.526 68.542zM929.685 292.622c0-104.139-42.187-198.334-110.405-266.59l-48.437 48.478c55.808 55.808 90.313 132.917 90.313 218.112 0 86.043-35.246 163.881-92.119 219.849l41.431 55.202c73.378-68.77 119.216-166.562 119.216-275.051zM792.617 292.622c0-74.967-34.386-141.945-88.254-185.897l-48.814 48.775c41.632 31.259 68.526 81.045 68.526 137.122 0 56.037-26.894 105.808-68.526 137.067l48.814 48.83c53.867-44.007 88.254-110.93 88.254-185.897zM655.55 292.622c0-45.703-29.806-84.453-71.035-97.833l-31.769 63.515c18.93 0 34.263 15.374 34.263 34.318 0 18.889-15.333 34.263-34.263 34.263l31.769 63.529c41.23-13.392 71.035-52.13 71.035-97.792z" />
<glyph unicode="&#xe020;" d="M146.446 404.197h146.944l220.361 183.659v-624.423l-220.361 220.402h-146.944c-40.569 0-73.458 32.875-73.458 73.417v73.472c0 40.583 32.889 73.472 73.458 73.472zM844.354 294.037c0-80.384-36.85-152.133-94.597-199.275l-52.334 52.331c44.626 33.481 73.458 86.825 73.458 146.944 0 60.078-28.832 113.408-73.458 146.889l52.334 52.345c57.746-47.157 94.597-118.891 94.597-199.234zM697.424 294.037c0-48.978-31.945-90.517-76.167-104.866l-34.034 68.082c20.306 0 36.729 16.466 36.729 36.784 0 20.265-16.423 36.688-36.729 36.688l34.034 68.137c44.222-14.363 76.167-55.888 76.167-104.825z" />
<glyph unicode="&#xe021;" d="M153.68 470.784h161.456l242.11 201.769v-686.027l-242.11 242.149h-161.456c-44.53 0-80.693 36.11-80.693 80.695v80.709c0 44.583 36.162 80.706 80.693 80.706zM759.026 349.71c0-53.787-35.099-99.408-83.685-115.173l-37.39 74.832c22.286 0 40.368 18.041 40.368 40.341 0 22.286-18.082 40.368-40.368 40.368l37.39 74.805c48.585-15.737 83.685-61.346 83.685-115.173z" />
<glyph unicode="&#xe022;" d="M201.216 470.784h161.456l242.149 201.769v-686.027l-242.149 242.149h-161.456c-44.53 0-80.695 36.11-80.695 80.695v80.709c0 44.583 36.165 80.706 80.695 80.706z" />
<glyph unicode="&#xe023;" d="M72.987 454.992h330.469l108.544 303.927 108.544-303.927h330.469l-275.227-197.145 123.246-309.397-287.031 168.839-253.291-168.839 95.433 304.789-281.154 201.753z" />
<glyph unicode="&#xe024;" d="M545.778 171.33v-101.307h-439.013v101.307h439.013zM72.987 441.52h330.469l108.544 303.925 108.544-303.925h330.469l-275.227-197.147 123.246-309.397-219.502 129.104v141.042h-236.233l10.846 34.642-281.154 201.755zM258.709-65.024l31.717 101.31h120.265l-151.982-101.31z" />
<glyph unicode="&#xe025;" d="M275.605 400.329h101.307v-168.878h168.866v-101.31h-168.866v-168.825h-101.307v168.825h-168.839v101.31h168.839v168.878zM72.987 501.639h330.469l108.544 303.927 108.544-303.927h330.469l-275.227-197.147 123.246-309.397-219.502 129.106v141.042h-168.839v168.866h-168.878v-53.653l-168.825 121.182z" />
<glyph unicode="&#xe026;" d="M824.279 412.565c0-171.129-138.711-309.854-309.854-309.854-171.129 0-309.854 138.725-309.854 309.854 0 160.674 122.274 292.809 278.864 308.318v32.539h-92.942v92.942h247.863v-92.942h-92.983v-32.539c62.357-6.158 119.23-30.8 165.134-68.393l22.354 22.341-43.79 43.842 65.696 65.739 131.463-131.449-65.71-65.753-43.831 43.831-22.338-22.379c43.707-53.397 69.927-121.707 69.927-196.096zM284.094 443.568h75.397v-61.993h-75.397c13.783-103.559 95.783-185.559 199.342-199.344v75.413h61.938v-75.413c103.6 13.785 185.6 95.785 199.385 199.344h-75.399v61.993h75.399c-13.785 103.559-95.785 185.559-199.385 199.342v-75.413h-61.938v75.413c-103.559-13.783-185.559-95.783-199.342-199.342zM514.425 474.558c34.238 0 61.952-27.758 61.952-61.993 0-34.238-27.714-61.938-61.952-61.938l-123.931-92.983 61.938 154.921c0 34.235 27.758 61.993 61.993 61.993zM158.101 567.497v123.527c-48.869-70.183-77.515-155.472-77.515-247.456 0-239.616 194.238-433.799 433.84-433.799h85.182c235.33 0 426.078 194.183 426.078 433.785 0-282.354-228.905-511.246-511.259-511.246-282.354 0-511.298 228.891-511.298 511.259 0 109.607 34.491 211.118 93.223 294.331h-108.704l77.472 77.515h170.402v-170.457l-77.419-77.461z" />
<glyph unicode="&#xe027;" d="M425.161-23.579h173.678v537.399l217.154-217.157v227.975l-303.993 303.993-303.993-303.993v-227.975l217.154 217.157v-537.399z" />
<glyph unicode="&#xe028;" d="M94.315 373.154v-173.675h537.399l-217.157-217.157h227.975l303.993 303.993-303.993 303.993h-227.975l217.157-217.154h-537.399z" />
<glyph unicode="&#xe029;" d="M929.685 199.479v173.675h-537.399l217.157 217.154h-227.975l-303.993-303.993 303.993-303.993h227.975l-217.157 217.157h537.399z" />
<glyph unicode="&#xe02a;" d="M598.839 811.79h-173.678v-537.399l-217.154 217.157v-227.975l303.993-303.993 303.993 303.993v227.975l-217.154-217.157v537.399z" />
<glyph unicode="&#xe02b;" d="M64 768h896v-192h-896zM64 512h896v-192h-896zM64 256h896v-192h-896z" />
<glyph unicode="&#xe02c;" d="M72.987 711.707h878.025v-742.994h-878.025v742.994zM140.503 644.137v-607.851h742.994v607.851h-742.994zM512 403.536c34.992 0 63.326-28.334 63.326-63.326s-28.334-63.326-63.326-63.326c-34.992 0-63.326 28.334-63.326 63.326 0 34.992 28.334 63.326 63.326 63.326zM512 509.090c147.739 0 274.391-105.554 274.391-168.88s-126.651-168.88-274.391-168.88c-147.739 0-274.391 105.554-274.391 168.88 0 63.326 126.651 168.88 274.391 168.88zM512 456.313c-64.107 0-116.103-51.995-116.103-116.103 0-64.107 51.995-116.103 116.103-116.103 64.107 0 116.103 51.995 116.103 116.103 0 64.107-51.995 116.103-116.103 116.103zM309.383 576.606v-33.778h-67.57v-67.529h-33.739v101.307h101.31zM815.927 576.606v-101.307h-33.739v67.529h-67.57v33.778h101.31zM815.927 103.815h-101.31v33.778h67.57v67.529h33.739v-101.307zM208.073 103.815v101.307h33.739v-67.529h67.57v-33.778h-101.31z" />
<glyph unicode="&#xe02d;" d="M72.987 711.707h878.025v-742.994h-878.025v742.994zM140.503 644.137v-607.851h742.994v607.851h-742.994z" />
<glyph unicode="&#xe02e;" d="M490.672 811.79c173.015 0 313.262-124.672 313.262-278.475 0-24.023-3.435-47.333-9.888-69.577l-303.374-487.317-303.374 487.317c-6.455 22.245-9.89 45.554-9.89 69.577 0 153.803 140.247 278.475 313.264 278.475zM490.672 620.368c-48.062 0-87.015-38.951-87.015-87.054 0-48.046 38.953-86.999 87.015-86.999 48.046 0 86.999 38.953 86.999 86.999 0 48.103-38.953 87.054-86.999 87.054z" />
<glyph unicode="&#xe02f;" d="M166.251 86.258l193.307 188.094c-24.953 43.237-30.059 93.358-30.059 146.889 0 162.359 122.448 293.982 284.821 293.982 162.411 0 294.034-131.623 294.034-293.982 0-162.411-131.623-284.821-294.034-284.821-50.715 0-98.48 3.666-140.128 26.261l-194.802-189.547c-28.711-28.713-84.425-28.713-113.138 0-28.699 28.713-28.699 84.425 0 113.125zM614.32 604.983c-101.472 0-183.755-82.272-183.755-183.742 0-101.525 82.283-183.794 183.755-183.794 101.511 0 183.794 82.27 183.794 183.794 0 101.47-82.283 183.742-183.794 183.742z" />
<glyph unicode="&#xe030;" d="M166.21 86.258l193.307 188.094c-24.953 43.237-30.059 93.358-30.059 146.889 0 162.359 122.448 293.982 284.821 293.982 162.411 0 294.037-131.623 294.037-293.982 0-162.411-131.625-284.821-294.037-284.821-50.715 0-98.48 3.666-140.126 26.261l-194.802-189.547c-28.713-28.713-84.427-28.713-113.141 0-28.697 28.713-28.697 84.425 0 113.125zM614.279 604.983c-101.47 0-183.753-82.272-183.753-183.742 0-101.525 82.283-183.794 183.753-183.794 101.511 0 183.794 82.27 183.794 183.794 0 101.47-82.283 183.742-183.794 183.742zM577.63 531.483h73.499v-73.513h73.472v-73.513h-73.472v-73.497h-73.499v73.497h-73.511v73.513h73.511v73.513z" />
<glyph unicode="&#xe031;" d="M166.21 86.258l193.307 188.094c-24.953 43.237-30.059 93.358-30.059 146.889 0 162.359 122.448 293.982 284.821 293.982 162.411 0 294.037-131.623 294.037-293.982 0-162.411-131.625-284.821-294.037-284.821-50.715 0-98.48 3.666-140.126 26.261l-194.802-189.547c-28.713-28.699-84.427-28.699-113.141 0-28.697 28.713-28.697 84.425 0 113.125zM614.279 604.983c-101.47 0-183.753-82.272-183.753-183.742 0-101.525 82.283-183.794 183.753-183.794 101.511 0 183.794 82.27 183.794 183.794 0 101.47-82.283 183.742-183.794 183.742zM504.119 457.97h220.482v-73.513h-220.482v73.513z" />
<glyph unicode="&#xe032;" d="M444.471-33.685v405.234l-337.705 472.805h810.469l-337.705-472.805v-337.664l-135.058-67.57z" />
<glyph unicode="&#xe033;" d="M226.331 657.961h571.337c19.698 0 26.745-80.345 26.745-80.345h-624.827c0 0 7.047 80.345 26.745 80.345zM458.455 747.223h107.090c9.849 0 35.719-25.829 35.719-35.719 0-9.849-25.87-35.678-35.719-35.678h-107.090c-9.849 0-35.719 25.829-35.719 35.678 0 9.89 25.87 35.719 35.719 35.719zM279.915 550.832h464.169c19.698 0 35.719-15.982 35.719-35.68l-35.719-535.566c0-19.751-15.979-35.73-35.733-35.73h-392.704c-19.753 0-35.733 15.979-35.733 35.73l-35.719 535.566c0 19.698 16.021 35.68 35.719 35.68zM333.461 479.422l8.933-464.155h62.478l-8.933 464.155h-62.478zM476.322 479.422v-464.155h71.355v464.155h-71.355zM628.062 479.422l-8.933-464.155h62.478l8.933 464.155h-62.478z" />
<glyph unicode="&#xe034;" d="M512 664.51c198.992 0 360.299-161.321 360.299-360.341 0-198.994-161.307-360.313-360.299-360.313-198.978 0-360.299 161.319-360.299 360.313 0 199.019 161.321 360.341 360.299 360.341zM512 574.437c-149.234 0-270.229-120.994-270.229-270.267 0-149.248 120.994-270.229 270.229-270.229 149.234 0 270.229 120.981 270.229 270.229 0 149.273-120.994 270.267-270.229 270.267zM502.985 502.338c19.915 0 36.057-16.101 36.057-36v-135.141h135.086c19.902 0 36.043-16.142 36.043-36.002v-18.027c0-19.902-16.142-36.043-36.043-36.043h-162.128c-18.027 2.992-36.041 6.023-46.551 16.519-10.51 10.51-13.502 28.537-16.491 46.526v162.169c0 19.899 16.101 36 36.014 36h18.014zM764.201 736.567c79.63 0 144.153-64.526 144.153-144.155 0-34.318-12.005-65.833-32.080-90.597-46.983 86.418-123.863 154.286-216.738 189.682 26.274 27.742 63.449 45.070 104.665 45.070zM259.799 736.567c41.216 0 78.391-17.328 104.665-45.070-92.875-35.397-169.755-103.264-216.738-189.682-20.075 24.763-32.080 56.279-32.080 90.597 0 79.63 64.523 144.155 144.153 144.155z" />
<glyph unicode="&#xe035;" d="M512 811.79c76.88 0 139.209-62.343 139.209-139.211v-243.685c0-76.866-62.329-139.209-139.209-139.209s-139.209 62.343-139.209 139.209v243.685c0 76.869 62.329 139.211 139.209 139.211zM337.947 80.841h104.421v42.578c-139.506 31.65-243.632 156.43-243.632 305.474v104.421h104.423v-104.421c0-115.307 93.479-208.841 208.841-208.841s208.841 93.534 208.841 208.841v104.421h104.423v-104.421c0-149.045-104.126-273.824-243.632-305.474v-42.578h104.421v-104.421h-348.105v104.421z" />
<glyph unicode="&#xe036;" d="M344.926-37.054h-264.085v264.085l86.233 86.233v-194.023l172.462 172.464 70.064-70.064-172.464-172.462h194.023l-86.233-86.233zM943.159 227.031v-264.085h-264.085l-86.233 86.233h194.023l-172.464 172.462 70.064 70.064 172.462-172.464v194.023l86.233-86.233zM679.074 825.264h264.085v-264.085l-86.233-86.233v194.023l-172.462-172.464-70.064 70.064 172.464 172.462h-194.023l86.233 86.233zM80.841 561.179v264.085h264.085l86.233-86.233h-194.023l172.464-172.462-70.064-70.064-172.462 172.464v-194.023l-86.233 86.233z" />
<glyph unicode="&#xe037;" d="M860.699 479.934h-262.873v262.871l85.829 85.826v-193.131l171.655 171.655 69.739-69.739-171.655-171.655h193.131l-85.826-85.826zM426.174 742.805v-262.871h-262.873l-85.826 85.826h193.131l-171.655 171.655 69.739 69.739 171.655-171.655v193.131l85.829-85.826zM163.301 308.279h262.873v-262.873l-85.829-85.826v193.131l-171.655-171.655-69.739 69.739 171.655 171.655h-193.131l85.826 85.829zM597.826 45.406v262.873h262.873l85.826-85.829h-193.131l171.655-171.655-69.739-69.739-171.655 171.655v-193.131l-85.829 85.826z" />
<glyph unicode="&#xe038;" d="M279.646 340.615h452.715v-84.21h-452.715zM463.872 524.88h84.265v-452.715h-84.265zM74.846-19.55v732.981h107.79v64.674c0 23.808 19.294 43.115 43.115 43.115h86.233c23.808 0 43.115-19.307 43.115-43.115v-64.674h301.81v64.674c0 23.822 19.307 43.115 43.115 43.115h86.231c23.822 0 43.118-19.294 43.118-43.115v-64.674h107.787v-732.981h-862.315zM139.52 45.122h732.969v495.847h-732.969v-495.847zM732.361 778.105c-17.865 0-32.336-14.471-32.336-32.336v-64.674c0-17.879 14.471-32.336 32.336-32.336h21.559c17.879 0 32.336 14.457 32.336 32.336v64.674c0 17.865-14.457 32.336-32.336 32.336h-21.559zM258.089 778.105c-17.881 0-32.338-14.471-32.338-32.336v-64.674c0-17.879 14.457-32.336 32.338-32.336h21.557c17.867 0 32.338 14.457 32.338 32.336v64.674c0 17.865-14.471 32.336-32.338 32.336h-21.557z" />
<glyph unicode="&#xe03c;" d="M446.032 865.685h131.936v-351.717h351.717v-131.936h-351.717v-351.717h-131.936v351.717h-351.717v131.936h351.717v351.717z" />
<glyph unicode="&#xe03d;" d="M512 672.795c35.49 0 64.215-28.754 64.215-64.242h128.459c35.488 0 64.215-28.727 64.215-64.217v-513.806c0-35.449-28.727-64.215-64.215-64.215h-385.349c-35.488 0-64.215 28.766-64.215 64.215v513.806c0 35.49 28.727 64.217 64.215 64.217h128.459c0 35.488 28.725 64.242 64.215 64.242zM512 865.47c-111.038 0-205.595-70.441-241.474-169.070l-60.405 21.936c44.869 123.298 163.072 211.349 301.879 211.349s257.010-88.050 301.879-211.349l-60.405-21.936c-35.879 98.629-130.437 169.070-241.474 169.070zM512 737.010c-55.511 0-102.818-35.248-120.766-84.533l-60.347 21.934c26.88 74.011 97.819 126.814 181.113 126.814s154.233-52.802 181.113-126.814l-60.347-21.934c-17.947 49.285-65.255 84.533-120.766 84.533zM367.495 415.879c-26.61 0-48.169-21.573-48.169-48.169 0-26.61 21.559-48.167 48.169-48.167 26.61 0 48.169 21.557 48.169 48.167 0 26.597-21.559 48.169-48.169 48.169zM512 415.879c-26.61 0-48.169-21.573-48.169-48.169 0-26.61 21.559-48.167 48.169-48.167 26.61 0 48.169 21.557 48.169 48.167 0 26.597-21.559 48.169-48.169 48.169zM656.505 415.879c-26.61 0-48.169-21.573-48.169-48.169 0-26.61 21.559-48.167 48.169-48.167 26.61 0 48.169 21.557 48.169 48.167 0 26.597-21.559 48.169-48.169 48.169zM367.495 287.447c-26.61 0-48.169-21.557-48.169-48.167 0-26.599 21.559-48.169 48.169-48.169 26.61 0 48.169 21.57 48.169 48.169 0 26.61-21.559 48.167-48.169 48.167zM512 287.447c-26.61 0-48.169-21.557-48.169-48.167 0-26.599 21.559-48.169 48.169-48.169 26.61 0 48.169 21.57 48.169 48.169 0 26.61-21.559 48.167-48.169 48.167zM656.505 287.447c-26.61 0-48.169-21.557-48.169-48.167 0-26.599 21.559-48.169 48.169-48.169 26.61 0 48.169 21.57 48.169 48.169 0 26.61-21.559 48.167-48.169 48.167zM367.495 158.99c-26.61 0-48.169-21.559-48.169-48.169s21.559-48.167 48.169-48.167c26.61 0 48.169 21.557 48.169 48.167 0 26.61-21.559 48.169-48.169 48.169zM512 158.99c-26.61 0-48.169-21.559-48.169-48.169s21.559-48.167 48.169-48.167c26.61 0 48.169 21.557 48.169 48.167 0 26.61-21.559 48.169-48.169 48.169zM656.505 158.99c-26.61 0-48.169-21.559-48.169-48.169s21.559-48.167 48.169-48.167c26.61 0 48.169 21.557 48.169 48.167 0 26.61-21.559 48.169-48.169 48.169zM672.553 512.215h-64.217c-17.717 0-32.121-14.361-32.121-32.094 0-17.758 14.405-32.121 32.121-32.121h64.217c17.758 0 32.121 14.363 32.121 32.121 0 17.733-14.363 32.094-32.121 32.094zM512 512.215h-160.553c-17.758 0-32.121-14.361-32.121-32.094 0-17.758 14.363-32.121 32.121-32.121h160.553c17.719 0 32.121 14.363 32.121 32.121 0 17.733-14.402 32.094-32.121 32.094z" />
<glyph unicode="&#xe03e;" d="M650.119 617.365h276.251v-587.049h-276.251v587.049zM693.289 505.143v-60.457h60.441v60.457h-60.441zM822.798 505.143v-60.457h60.416v60.457h-60.416zM693.289 401.529v-60.416h60.441v60.416h-60.441zM822.798 401.529v-60.416h60.416v60.416h-60.416zM693.289 297.957v-60.455h60.441v60.455h-60.441zM822.798 297.957v-60.455h60.416v60.455h-60.416zM693.289 194.345v-60.416h60.441v60.416h-60.441zM822.798 194.345v-60.416h60.416v60.416h-60.416zM201.202 720.976l34.546 69.054h34.521v86.325h34.546v-86.325h69.065v86.325h34.505v-86.325h34.549l34.56-69.054v-207.225h51.765l51.806-51.765v-431.671h-483.435v431.671l51.767 51.765h51.806v207.225zM244.359 677.767v-60.402h51.806v60.402h-51.806zM382.53 677.767v-60.402h51.767v60.402h-51.767zM244.359 574.194v-60.443h51.806v60.443h-51.806zM382.53 574.194v-60.443h51.767v60.443h-51.767zM356.622 401.529h-43.198v-60.416h43.198v60.416zM218.503 401.529v-60.416h51.767v60.416h-51.767zM468.843 401.529h-60.457v-60.416h60.457v60.416zM356.622 297.957h-43.198v-60.455h43.198v60.455zM270.27 297.957h-51.767v-60.455h51.767v60.455zM468.843 297.957h-60.457v-60.455h60.457v60.455zM356.622 194.345h-43.198v-60.416h43.198v60.416zM270.27 194.345h-51.767v-60.416h51.767v60.416zM468.843 194.345h-60.457v-60.416h60.457v60.416z" />
<glyph unicode="&#xe600;" d="M298.196 553.681h427.609c18.893 0 34.208-18.229 34.208-40.716v-285.009c0-22.488-15.316-40.716-34.208-40.716h-427.609c-18.893 0-34.208 18.229-34.208 40.716v285.009c0 22.488 15.316 40.716 34.208 40.716zM306.090 514.394c-4.36 0-7.894-4.206-7.894-9.395v-274.291c0-5.19 3.534-9.397 7.894-9.397l411.818 0.249c4.36 0 7.894 4.208 7.894 9.397v274.289c0 5.19-3.534 9.397-7.894 9.397l-411.818-0.249zM194.793 86.699c-43.536 0-55.114 27.268-55.114 54.537v27.269l744.642-0.38v-27.269c0-27.268-11.578-54.537-55.114-54.537l-634.414 0.38zM410.958 129.936c0-6.039 4.112-10.933 9.185-10.933h183.712c5.074 0 9.186 4.894 9.186 10.933 0 6.038-4.112 10.933-9.186 10.933h-183.712c-5.073 0-9.185-4.895-9.185-10.933z" />
<glyph unicode="&#xe601;" d="M303.132 562.281h431.21c19.052 0 34.497-18.383 34.497-41.060v-287.41c0-22.676-15.445-41.058-34.497-41.058h-431.21c-19.053 0-34.497 18.382-34.497 41.058v287.41c0 22.676 15.444 41.060 34.497 41.060zM311.093 522.664c-4.396 0-7.96-4.243-7.96-9.476v-276.601c0-5.233 3.564-9.475 7.96-9.475l415.286 0.252c4.398 0 7.962 4.242 7.962 9.475v276.6c0 5.233-3.564 9.475-7.962 9.475l-415.286-0.249zM198.858 91.365c-43.903 0-55.578 27.498-55.578 54.997l-0.001 27.5 750.914-0.383v-27.5c0-27.498-11.675-54.997-55.578-54.997l-639.757 0.383zM416.843 134.967c0-6.090 4.147-11.026 9.263-11.026h185.26c5.116 0 9.263 4.935 9.263 11.026 0 6.089-4.147 11.024-9.263 11.024h-185.26c-5.116 0-9.263-4.935-9.263-11.024zM518.737 835.368c23.287 0 33.268-13.307 29.909-41.238 3.001-1.722 5.022-4.957 5.022-8.664 0-4.537-3.026-8.366-7.171-9.58-1.731-6.171-4.419-11.633-7.8-16.003v-20.992c11.090-2.218 19.961-3.327 33.268-9.98 13.307-6.655 17.743-12.753 26.615-21.624v-31.605h-159.685v31.605c8.871 8.871 13.307 14.969 26.615 21.624 13.307 6.653 22.178 7.762 33.267 9.98l0.001 20.992c-3.381 4.37-6.070 9.832-7.8 16.003-4.145 1.214-7.171 5.043-7.171 9.58 0 3.707 2.021 6.942 5.022 8.664-3.359 27.931 6.621 41.238 29.909 41.238z" />
<glyph unicode="&#xe602;" d="M380.502 332.522h276.469c12.215 0 22.118-11.785 22.118-26.324v-184.273c0-14.539-9.903-26.325-22.118-26.325h-276.469c-12.215 0-22.118 11.785-22.118 26.325v184.273c0 14.538 9.903 26.324 22.118 26.324zM385.606 307.123c-2.819 0-5.104-2.72-5.104-6.075v-177.343c0-3.355 2.285-6.074 5.104-6.074l266.26 0.162c2.819 0 5.104 2.719 5.104 6.074v177.342c0 3.355-2.285 6.075-5.104 6.075l-266.26-0.16zM313.647 30.596c-28.148 0-35.634 17.63-35.634 35.262v17.63l481.447-0.245v-17.63c0-17.632-7.486-35.262-35.634-35.262l-410.179 0.245zM453.408 58.551c0-3.903 2.658-7.068 5.939-7.068h118.779c3.279 0 5.939 3.165 5.939 7.068s-2.66 7.068-5.939 7.068h-118.779c-3.281 0-5.939-3.165-5.939-7.068zM518.737 879.158c58.947 0 84.211-33.684 75.709-104.386 7.596-4.356 12.712-12.545 12.712-21.93 0-11.482-7.661-21.177-18.152-24.249-4.382-15.62-11.187-29.447-19.743-40.507v-53.139c28.070-5.614 50.526-8.421 84.211-25.263 33.684-16.842 44.912-32.28 67.368-54.737v-80h-404.211v80c22.457 22.457 33.684 37.895 67.368 54.737 33.684 16.842 56.141 19.649 84.211 25.263v53.139c-8.556 11.061-15.361 24.887-19.743 40.507-10.491 3.072-18.152 12.766-18.152 24.249 0 9.384 5.116 17.574 12.712 21.93-8.502 70.702 16.761 104.386 75.709 104.386z" />
<glyph unicode="&#xe603;" d="M268.974 707.123h499.526c22.070 0 39.962-21.295 39.962-47.563v-332.944c0-26.27-17.892-47.563-39.962-47.563h-499.526c-22.070 0-39.962 21.294-39.962 47.563v332.944c0 26.268 17.892 47.563 39.962 47.563zM278.197 661.229c-5.093 0-9.223-4.914-9.223-10.976v-320.423c0-6.062 4.13-10.976 9.223-10.976l481.079 0.291c5.093 0 9.221 4.915 9.221 10.977v320.42c0 6.062-4.128 10.977-9.221 10.977l-481.079-0.291zM148.181 161.601c-50.859 0-64.384 31.856-64.384 63.712v31.854l869.88-0.443v-31.856c0-31.854-13.525-63.71-64.384-63.71l-741.112 0.443zM400.701 212.111c0-7.053 4.805-12.772 10.73-12.772h214.61c5.927 0 10.73 5.718 10.73 12.772 0 7.053-4.803 12.772-10.73 12.772h-214.61c-5.926 0-10.73-5.718-10.73-12.772zM518.737 579.368c23.287 0 33.268-13.307 29.909-41.238 3.001-1.722 5.022-4.957 5.022-8.664 0-4.537-3.026-8.366-7.171-9.58-1.731-6.171-4.419-11.633-7.8-16.003v-20.992c11.090-2.218 19.961-3.327 33.268-9.98 13.307-6.655 17.743-12.753 26.615-21.624v-31.605h-159.685v31.605c8.871 8.871 13.307 14.969 26.615 21.624 13.307 6.653 22.178 7.762 33.267 9.98l0.001 20.992c-3.381 4.37-6.070 9.832-7.8 16.003-4.145 1.214-7.171 5.043-7.171 9.58 0 3.707 2.021 6.942 5.022 8.664-3.359 27.931 6.621 41.238 29.909 41.238z" />
</font>
</defs>
</svg>
